<?xml version="1.0" encoding="utf-8"?>
<!-- Generator: Adobe Illustrator 27.5.0, SVG Export Plug-In . SVG Version: 6.00 Build 0)  -->
<svg version="1.1" xmlns="http://www.w3.org/2000/svg" xmlns:xlink="http://www.w3.org/1999/xlink" x="0px" y="0px"
	 viewBox="0 0 1122 1122" style="enable-background:new 0 0 1122 1122;" xml:space="preserve">
<g id="Object">
	<g>
		<g>
			<g>
				<linearGradient id="SVGID_1_" gradientUnits="userSpaceOnUse" x1="701.1288" y1="298.3672" x2="-11.6595" y2="1011.1555">
					<stop  offset="0" style="stop-color:#5184C8"/>
					<stop  offset="0.1082" style="stop-color:#4F80C2"/>
					<stop  offset="0.2544" style="stop-color:#4875B1"/>
					<stop  offset="0.422" style="stop-color:#3C6294"/>
					<stop  offset="0.6059" style="stop-color:#2C486D"/>
					<stop  offset="0.8028" style="stop-color:#18273A"/>
					<stop  offset="1" style="stop-color:#000000"/>
				</linearGradient>
				<path style="fill:url(#SVGID_1_);" d="M565.349,493.327c-4.166-20.601-9.08-40.972-14.894-60.81
					c-10.714,9.707-22.827,17.882-36.621,23.917c-19.544,8.469-39.171,17.205-58.494,26.567
					c3.493,27.571,7.296,58.099,11.137,89.824C503.601,551.638,537.915,527.154,565.349,493.327z"/>
				
					<linearGradient id="SVGID_00000111157880591518447140000017978170120419343776_" gradientUnits="userSpaceOnUse" x1="683.3561" y1="280.5952" x2="-29.4311" y2="993.3824">
					<stop  offset="0" style="stop-color:#5184C8"/>
					<stop  offset="0.1082" style="stop-color:#4F80C2"/>
					<stop  offset="0.2544" style="stop-color:#4875B1"/>
					<stop  offset="0.422" style="stop-color:#3C6294"/>
					<stop  offset="0.6059" style="stop-color:#2C486D"/>
					<stop  offset="0.8028" style="stop-color:#18273A"/>
					<stop  offset="1" style="stop-color:#000000"/>
				</linearGradient>
				<path style="fill:url(#SVGID_00000111157880591518447140000017978170120419343776_);" d="M338.091,639.5
					c39.005-21.731,79.789-39.903,118.058-60.899c-2.484-30.28-4.984-61.31-7.42-92.365c-48.191,23.813-94.171,51.854-131.751,89.95
					c0.259,23.594,1.252,48.704,3.095,75.409C324.67,645.42,332.175,642.458,338.091,639.5z"/>
				
					<linearGradient id="SVGID_00000075154607132490117790000000734909072042094223_" gradientUnits="userSpaceOnUse" x1="588.5465" y1="485.2578" x2="2.8159" y2="1070.9884">
					<stop  offset="0" style="stop-color:#FCF6E8"/>
					<stop  offset="0.0934" style="stop-color:#F6F0E2"/>
					<stop  offset="0.2195" style="stop-color:#E5DFD3"/>
					<stop  offset="0.3644" style="stop-color:#C8C4B8"/>
					<stop  offset="0.5233" style="stop-color:#A19D94"/>
					<stop  offset="0.6935" style="stop-color:#6E6C65"/>
					<stop  offset="0.8704" style="stop-color:#31302D"/>
					<stop  offset="1" style="stop-color:#000000"/>
				</linearGradient>
				<path style="fill:url(#SVGID_00000075154607132490117790000000734909072042094223_);" d="M456.149,578.601
					c-38.269,20.997-79.053,39.168-118.058,60.899c-5.916,2.958-13.42,5.919-18.018,12.094c2.561,37.11,6.77,77.31,12.947,120.832
					c42.918-23.027,89.537-41.584,134.109-63.289C463.683,669.079,459.933,624.716,456.149,578.601z"/>
				
					<linearGradient id="SVGID_00000138563505743914864650000002684082292706668672_" gradientUnits="userSpaceOnUse" x1="831.1407" y1="428.3784" x2="118.3534" y2="1141.1658">
					<stop  offset="0" style="stop-color:#5184C8"/>
					<stop  offset="0.1082" style="stop-color:#4F80C2"/>
					<stop  offset="0.2544" style="stop-color:#4875B1"/>
					<stop  offset="0.422" style="stop-color:#3C6294"/>
					<stop  offset="0.6059" style="stop-color:#2C486D"/>
					<stop  offset="0.8028" style="stop-color:#18273A"/>
					<stop  offset="1" style="stop-color:#000000"/>
				</linearGradient>
				<path style="fill:url(#SVGID_00000138563505743914864650000002684082292706668672_);" d="M585.881,749.705
					c0.553-35.464-0.004-75.336-2.706-117.026c-29.792,28.893-64.838,50.517-101.76,69.346
					c4.665,42.837,8.742,83.597,11.576,118.031C526.494,800.107,558.119,777.871,585.881,749.705z"/>
				
					<linearGradient id="SVGID_00000060001505134875081210000009803461546918899867_" gradientUnits="userSpaceOnUse" x1="804.397" y1="401.6349" x2="91.6101" y2="1114.4218">
					<stop  offset="0" style="stop-color:#5184C8"/>
					<stop  offset="0.1082" style="stop-color:#4F80C2"/>
					<stop  offset="0.2544" style="stop-color:#4875B1"/>
					<stop  offset="0.422" style="stop-color:#3C6294"/>
					<stop  offset="0.6059" style="stop-color:#2C486D"/>
					<stop  offset="0.8028" style="stop-color:#18273A"/>
					<stop  offset="1" style="stop-color:#000000"/>
				</linearGradient>
				<path style="fill:url(#SVGID_00000060001505134875081210000009803461546918899867_);" d="M467.128,709.137
					c-41.805,22.491-90.168,40.553-134.109,63.289c5.347,37.676,12.168,77.84,20.68,120.655h5.824
					c39.454-22.676,79.772-42.3,118.107-64.094C474.856,797.923,471.206,756.552,467.128,709.137z"/>
				
					<linearGradient id="SVGID_00000061472476400483486830000018357325276665852046_" gradientUnits="userSpaceOnUse" x1="887.9052" y1="473.446" x2="98.1626" y2="1263.1887">
					<stop  offset="0" style="stop-color:#6CACE3"/>
					<stop  offset="0.0998" style="stop-color:#69A7DD"/>
					<stop  offset="0.2347" style="stop-color:#619ACC"/>
					<stop  offset="0.3895" style="stop-color:#5385AF"/>
					<stop  offset="0.5591" style="stop-color:#416788"/>
					<stop  offset="0.741" style="stop-color:#294155"/>
					<stop  offset="0.9303" style="stop-color:#0C1218"/>
					<stop  offset="1" style="stop-color:#000000"/>
				</linearGradient>
				<path style="fill:url(#SVGID_00000061472476400483486830000018357325276665852046_);" d="M585.881,749.705
					c-27.761,28.165-59.387,50.402-92.891,70.351c2.332,28.334,3.823,52.39,4.099,69.752l-14.048-0.878
					c0,0-2.067-22.475-5.411-59.941c-38.335,21.793-78.653,41.418-118.107,64.094h217.494
					C577.016,893.082,584.569,833.783,585.881,749.705z"/>
				
					<linearGradient id="SVGID_00000140704118376595588530000016746545954914528690_" gradientUnits="userSpaceOnUse" x1="615.4332" y1="512.1445" x2="29.7021" y2="1097.8756">
					<stop  offset="0" style="stop-color:#FCF6E8"/>
					<stop  offset="0.0934" style="stop-color:#F6F0E2"/>
					<stop  offset="0.2195" style="stop-color:#E5DFD3"/>
					<stop  offset="0.3644" style="stop-color:#C8C4B8"/>
					<stop  offset="0.5233" style="stop-color:#A19D94"/>
					<stop  offset="0.6935" style="stop-color:#6E6C65"/>
					<stop  offset="0.8704" style="stop-color:#31302D"/>
					<stop  offset="1" style="stop-color:#000000"/>
				</linearGradient>
				<path style="fill:url(#SVGID_00000140704118376595588530000016746545954914528690_);" d="M565.349,493.327
					c-27.434,33.827-61.747,58.31-98.872,79.498c5.124,42.318,10.317,86.769,14.938,129.2
					c36.923-18.829,71.968-40.453,101.76-69.346c-2.32-35.783-6.22-72.906-12.355-109.73
					C569.169,513.041,567.337,503.16,565.349,493.327z"/>
				
					<linearGradient id="SVGID_00000083074077597507909560000016966173517708112291_" gradientUnits="userSpaceOnUse" x1="644.1371" y1="229.678" x2="-145.6048" y2="1019.4199">
					<stop  offset="0" style="stop-color:#6CACE3"/>
					<stop  offset="0.0998" style="stop-color:#69A7DD"/>
					<stop  offset="0.2347" style="stop-color:#619ACC"/>
					<stop  offset="0.3895" style="stop-color:#5385AF"/>
					<stop  offset="0.5591" style="stop-color:#416788"/>
					<stop  offset="0.741" style="stop-color:#294155"/>
					<stop  offset="0.9303" style="stop-color:#0C1218"/>
					<stop  offset="1" style="stop-color:#000000"/>
				</linearGradient>
				<path style="fill:url(#SVGID_00000083074077597507909560000016966173517708112291_);" d="M439.141,358.622
					c0,0,7.032,52.023,16.198,124.379c19.323-9.362,38.95-18.098,58.494-26.567c13.795-6.035,25.908-14.21,36.621-23.917
					c-10.727-36.6-24.457-71.404-41.935-102.565c-70.902,18.673-130.612,61.797-183.685,109.87
					c-5.372,38.572-8.435,83.707-7.857,136.363c37.58-38.096,83.559-66.136,131.751-89.95
					C445.344,443.093,442.079,399.905,439.141,358.622z"/>
				
					<linearGradient id="SVGID_00000106846768711731328490000001014615719134989245_" gradientUnits="userSpaceOnUse" x1="571.52" y1="168.7579" x2="-141.2671" y2="881.5451">
					<stop  offset="0" style="stop-color:#5184C8"/>
					<stop  offset="0.1082" style="stop-color:#4F80C2"/>
					<stop  offset="0.2544" style="stop-color:#4875B1"/>
					<stop  offset="0.422" style="stop-color:#3C6294"/>
					<stop  offset="0.6059" style="stop-color:#2C486D"/>
					<stop  offset="0.8028" style="stop-color:#18273A"/>
					<stop  offset="1" style="stop-color:#000000"/>
				</linearGradient>
				<path style="fill:url(#SVGID_00000106846768711731328490000001014615719134989245_);" d="M415.361,228.13
					c0,0-67.126,43.667-90.526,211.693c53.073-48.073,112.783-91.197,183.685-109.87C484.906,287.851,454.463,252.39,415.361,228.13
					z M425.36,282.293c0,0,24.998,0.833,40.831,52.496l-29.998,17.499L425.36,282.293z"/>
			</g>
			
				<linearGradient id="SVGID_00000095298217443804262920000004441520694201361041_" gradientUnits="userSpaceOnUse" x1="351.7198" y1="59.7749" x2="351.7198" y2="978.3954">
				<stop  offset="0" style="stop-color:#FCF6E8"/>
				<stop  offset="0.0934" style="stop-color:#F6F0E2"/>
				<stop  offset="0.2195" style="stop-color:#E5DFD3"/>
				<stop  offset="0.3644" style="stop-color:#C8C4B8"/>
				<stop  offset="0.5233" style="stop-color:#A19D94"/>
				<stop  offset="0.6935" style="stop-color:#6E6C65"/>
				<stop  offset="0.8704" style="stop-color:#31302D"/>
				<stop  offset="1" style="stop-color:#000000"/>
			</linearGradient>
			<path style="fill:url(#SVGID_00000095298217443804262920000004441520694201361041_);" d="M402.985,230.781
				c-181.561,122.04-66.094,661.022-68.96,661.34l11.835-0.486C231.624,385.619,402.985,230.781,402.985,230.781z"/>
			<g>
				<path style="fill:#CC622B;" d="M695.211,409.59l-63.587-63.587c-18.434,28.818-35.977,67.716-46.004,118.999L691.948,571.33
					C692.605,513.839,693.632,457.188,695.211,409.59z"/>
				
					<linearGradient id="SVGID_00000180352693561996109290000010973541176666083775_" gradientUnits="userSpaceOnUse" x1="466.7148" y1="429.575" x2="1409.9218" y2="1372.782">
					<stop  offset="0" style="stop-color:#FCF6E8"/>
					<stop  offset="0.0934" style="stop-color:#F6F0E2"/>
					<stop  offset="0.2195" style="stop-color:#E5DFD3"/>
					<stop  offset="0.3644" style="stop-color:#C8C4B8"/>
					<stop  offset="0.5233" style="stop-color:#A19D94"/>
					<stop  offset="0.6935" style="stop-color:#6E6C65"/>
					<stop  offset="0.8704" style="stop-color:#31302D"/>
					<stop  offset="1" style="stop-color:#000000"/>
				</linearGradient>
				<path style="fill:url(#SVGID_00000180352693561996109290000010973541176666083775_);" d="M691.948,571.33L585.62,465.003
					c-3.479,17.794-6.06,37.069-7.449,57.946c6.391,38.358,10.35,77.035,12.63,114.19l100.106,100.106
					C691.007,686.493,691.294,628.498,691.948,571.33z"/>
				
					<linearGradient id="SVGID_00000158750827850541261510000015298602106451153847_" gradientUnits="userSpaceOnUse" x1="312.7606" y1="583.5287" x2="1255.969" y2="1526.7371">
					<stop  offset="0" style="stop-color:#FCF6E8"/>
					<stop  offset="0.0934" style="stop-color:#F6F0E2"/>
					<stop  offset="0.2195" style="stop-color:#E5DFD3"/>
					<stop  offset="0.3644" style="stop-color:#C8C4B8"/>
					<stop  offset="0.5233" style="stop-color:#A19D94"/>
					<stop  offset="0.6935" style="stop-color:#6E6C65"/>
					<stop  offset="0.8704" style="stop-color:#31302D"/>
					<stop  offset="1" style="stop-color:#000000"/>
				</linearGradient>
				<path style="fill:url(#SVGID_00000158750827850541261510000015298602106451153847_);" d="M660.261,893.082l-69.853-69.853
					c-2.634,43.07-6.041,69.853-6.041,69.853H660.261z"/>
				<path style="fill:#CC622B;" d="M691.129,893.082c-0.044-7.676-0.389-71.832-0.222-155.837L590.801,637.139
					c4.443,72.398,2.488,138.986-0.393,186.09l69.853,69.853H691.129z"/>
				
					<linearGradient id="SVGID_00000035511240732149229550000012113726434210307492_" gradientUnits="userSpaceOnUse" x1="466.7148" y1="429.575" x2="1409.9216" y2="1372.7819">
					<stop  offset="0" style="stop-color:#FCF6E8"/>
					<stop  offset="0.0934" style="stop-color:#F6F0E2"/>
					<stop  offset="0.2195" style="stop-color:#E5DFD3"/>
					<stop  offset="0.3644" style="stop-color:#C8C4B8"/>
					<stop  offset="0.5233" style="stop-color:#A19D94"/>
					<stop  offset="0.6935" style="stop-color:#6E6C65"/>
					<stop  offset="0.8704" style="stop-color:#31302D"/>
					<stop  offset="1" style="stop-color:#000000"/>
				</linearGradient>
				<path style="fill:url(#SVGID_00000035511240732149229550000012113726434210307492_);" d="M821.06,700.443L698.1,577.482
					l-3.597,163.359L809.5,855.838C813.767,821.083,819.393,764.991,821.06,700.443z"/>
				<path style="fill:#CC622B;" d="M809.5,855.838L694.503,740.841l-3.352,152.241h113.2
					C804.351,893.082,806.615,879.335,809.5,855.838z"/>
				<path style="fill:#CC622B;" d="M813.813,528.193L701.655,416.034L698.1,577.482l122.961,122.96
					C822.456,646.424,821.08,586.489,813.813,528.193z"/>
				
					<linearGradient id="SVGID_00000168827812321977763830000015742854459687438519_" gradientUnits="userSpaceOnUse" x1="626.8035" y1="269.4864" x2="1570.0088" y2="1212.6917">
					<stop  offset="0" style="stop-color:#FCF6E8"/>
					<stop  offset="0.0934" style="stop-color:#F6F0E2"/>
					<stop  offset="0.2195" style="stop-color:#E5DFD3"/>
					<stop  offset="0.3644" style="stop-color:#C8C4B8"/>
					<stop  offset="0.5233" style="stop-color:#A19D94"/>
					<stop  offset="0.6935" style="stop-color:#6E6C65"/>
					<stop  offset="0.8704" style="stop-color:#31302D"/>
					<stop  offset="1" style="stop-color:#000000"/>
				</linearGradient>
				<path style="fill:url(#SVGID_00000168827812321977763830000015742854459687438519_);" d="M704.469,288.224l-2.814,127.811
					l112.159,112.159c-12.961-103.984-44.657-202.75-112.788-253.4c0,0-36.138,19.209-69.401,71.21l63.587,63.587
					C697.248,348.208,700.203,301.874,704.469,288.224z"/>
				<path style="fill:#FAEF38;" d="M691.133,893.87l0.018-0.788h-0.022C691.132,893.593,691.133,893.87,691.133,893.87z"/>
			</g>
		</g>
		
			<linearGradient id="SVGID_00000009549137798143864280000012601865940356886436_" gradientUnits="userSpaceOnUse" x1="475.0074" y1="279.3087" x2="321.1011" y2="433.215">
			<stop  offset="0" style="stop-color:#FCF6E8"/>
			<stop  offset="0.0934" style="stop-color:#F6F0E2"/>
			<stop  offset="0.2195" style="stop-color:#E5DFD3"/>
			<stop  offset="0.3644" style="stop-color:#C8C4B8"/>
			<stop  offset="0.5233" style="stop-color:#A19D94"/>
			<stop  offset="0.6935" style="stop-color:#6E6C65"/>
			<stop  offset="0.8704" style="stop-color:#31302D"/>
			<stop  offset="1" style="stop-color:#000000"/>
		</linearGradient>
		<path style="fill:url(#SVGID_00000009549137798143864280000012601865940356886436_);" d="M425.36,282.293
			c0,0,24.998,0.833,40.831,52.496l-29.998,17.499L425.36,282.293z"/>
	</g>
</g>
</svg>
